<svg version="1" xmlns="http://www.w3.org/2000/svg" width="933.333" height="933.333" viewBox="0 0 700.000000 700.000000"><path d="M337.2 30.7c-2 1-4.3 3.5-6.2 6.8-1.7 2.9-3.7 5.9-4.6 6.6-1.7 1.4-26.5 2.5-31.1 1.4-1.4-.3-3.2-2.3-4.7-5.3-2.9-5.7-6.3-7.7-12.7-7.6-11.8.3-18.1 11.5-12.4 22.4 2.2 4.3 1.9 6.8-1.9 14.5-12.8 26.3-36.5 45.1-51.1 40.2-4.2-1.4-7.9-1.6-9.9-.5-5.4 2.7-7.1 9-4.1 14.9.9 1.6 2.9 7.1 4.6 12.2 3.1 9.6 7.3 17.1 11.2 19.8 3.4 2.5 10.4 4.6 17.7 5.3 13.1 1.3 15.4 1.7 18.9 3.2 8.2 3.4 13.1 12.3 13.7 24.7.3 8.2-1 12.2-7.5 23.1-5.9 9.9-11.2 22.9-15.6 38.7-4 14.1-7.8 30.9-9.1 40.4-.3 2.2-.8 5.1-1.1 6.5-.2 1.4-.6 10.1-.8 19.5-.4 19 1.1 29.9 6.7 47.5 7 22.3 21.9 53.9 37.5 79.8 9.5 15.9 40.2 62 45 67.7 1 1.2 13.2 19.7 22.7 34.4 13.2 20.5 24.7 33.8 36.8 42.9 10.3 7.8 24.3 18.5 25.2 19.2 2.4 2.2-7.8 17.5-20.3 30.5-7.1 7.4-8.8 11.3-7.2 17.2 1.7 6.2 8.3 10.6 19.3 12.8 8.1 1.6 30.3 1.3 41-.5 10.3-1.9 26.1-6.6 32.3-9.7 6.6-3.4 13.3-9.3 15.5-13.7 3.9-8.2 3.1-15.2-3.7-29.4-5.8-12.5-10.9-28.1-12.9-39.6-1.6-8.9-1.5-27.7.1-36.6 1.3-6.9 5.4-17.8 10-26.1 7.6-13.8 15.2-30.1 16.3-34.9 3.1-12.9 4.2-25.8 3.7-43-.3-8.5-.7-16.6-.9-18-.2-1.4-.7-4.8-1-7.5-3-25.8-13.7-61.7-26.8-89.7l-4.1-8.7-2 2.2c-1 1.2-3 4.4-4.4 7.1-3.2 6.2-10.6 14.2-15.8 16.9-7.2 3.7-14 4.7-28.5 4.2-7.4-.3-15.1-.7-17-1-8.5-1.3-27.5-.8-33.5.9-9.5 2.8-12.4 4.7-25.9 17.4-8.6 7.9-14.7 10.5-25.5 10.5-6.6 0-9.7-.4-13.3-2-15.7-7.1-21.6-28.1-14.8-53.3 4-14.7 15.4-28.6 29-35.1 10.3-5 15.9-6.5 33.8-9.3l7.4-1.1-2.4-2.1c-3.1-2.7-9.9-5.9-24.3-11.4-14-5.2-18.4-9.1-14.6-12.9 4.2-4.2 17.8.5 43.6 15.1 12.8 7.3 15.7 10 15.3 14.1-.2 2.2-1.1 3.5-2.8 4.4-2.4 1.1-4.6 1.5-17.5 2.8-28.1 2.9-48.9 16.5-56 36.5-2.2 6.3-2.7 9.5-3 19-.3 13.2 3.3 21.5 10.8 24.8 4.1 1.8 12.6 1.4 17.2-.7 3.4-1.5 13.9-9.7 19.6-15.2 2.6-2.6 10.2-6.8 16.1-9 8.5-3.1 23.4-4.4 37.3-3.2 6.6.6 17.6 1 24.5.9 11.8-.1 12.9-.3 19.2-3.3 8.7-4.1 14.9-10.6 19.8-20.8 5.1-10.6 7.3-21.8 7.4-37.5.2-22.4-3.2-42-10.1-58.4-2.2-5.3-8.6-16.3-10.2-17.6-.3-.3-4-4.3-8.1-9s-7.7-8.7-8-9c-2.2-2-14.3-17.8-22-28.5-11.3-15.9-13.7-20.9-18.9-40.1-5.6-20.9-9.9-30.6-19.5-44.4-6.9-9.8-7.6-11.2-9.7-19.3-.9-3.7-2.4-7.9-3.3-9.2-3.4-5.2-12.6-7.6-18.4-4.8zM207.5 300.7c-11.9 1.1-23.6 5.9-31.5 13-8.7 7.8-12.1 16.9-11.6 30.8.5 13.7 6 26 15.5 35 5.5 5.3 7.8 6.4 12.8 6.5 3.3 0 4.8-.6 7.2-3 2.9-3 9.1-17.1 9.1-20.9 0-1.1.5-3.2 1-4.7 1-2.5 1.2-2.5 2.8-1.1 2.1 1.9 8.5 4.7 10.6 4.7 1 0 1.3-.7 1-2.3-.2-1.2-.7-4.5-1-7.2-.3-2.8-.7-6.1-1-7.5-1.2-8.1-1.8-18-1.7-29.2l.2-12.7-3.7-.6c-6.2-1-6.6-1-9.7-.8z"/><path d="M267.2 466.1c-3.6 3.7-6.6 10.8-8.1 19.5-.6 3.2-1.3 7.2-1.6 8.9-1.1 6.6-1.9 21.8-1.9 36.5.1 26.5 3.8 35.8 22.3 56 6.6 7.1 10.2 14.1 9.2 17.7-.9 3.4-4.2 5.4-17.8 10.5-20.4 7.7-27.2 14.1-26.4 24.8.9 11.8 18.2 19.3 43.9 18.9 6.2-.1 13-.5 15-.9 2-.5 5.3-1.1 7.2-1.4 6.1-.9 27.2-7.6 33.7-10.7 9.9-4.7 11.9-11.4 7.9-26.5-1-4-1.7-11.9-2-22.5-.6-19.4-1.4-22.8-8.6-33.5-4.6-6.9-14.4-20-16-21.4-2.3-1.9-15.1-19.6-21.5-29.5-4.3-6.6-8.6-13.2-9.6-14.7-1.1-1.5-1.9-2.9-1.9-3.2 0-.7-18-28.9-19.4-30.4-1-1.1-1.9-.7-4.4 1.9z"/></svg>